
<svg width="582px" height="653px" viewBox="0 0 582 653" version="1.1" xmlns="http://www.w3.org/2000/svg" xmlns:xlink="http://www.w3.org/1999/xlink">
    <!-- Generator: Sketch 44.1 (41455) - http://www.bohemiancoding.com/sketch -->
    <desc>Created with Sketch.</desc>
    <defs>
        <rect id="path-1" x="0" y="0" width="920" height="920" rx="100"></rect>
        <linearGradient x1="50%" y1="0%" x2="50%" y2="100%" id="linearGradient-3">
            <stop stop-color="#4EAFFF" offset="0%"></stop>
            <stop stop-color="#205DFB" offset="100%"></stop>
        </linearGradient>
    </defs>
    <g id="Page-1" stroke="none" stroke-width="1" fill="none" fill-rule="evenodd">
        <g id="app-copy" transform="translate(-157.000000, -143.000000)">
            <g id="Group-3" transform="translate(52.000000, 52.000000)">
                <g id="Group-4" transform="translate(-72.000000, -71.000000)">
                    <g id="Group-2" transform="translate(0.000000, 31.000000)">
                        <g id="Group">
                            <mask id="mask-2" fill="white">
                                <use xlink:href="#path-1"></use>
                            </mask>
                            <g id="Mask"></g>
                            <g mask="url(#mask-2)" id="Combined-Shape" fill="url(#linearGradient-3)">
                                <g transform="translate(417.108260, 487.108260) rotate(-45.000000) translate(-417.108260, -487.108260) translate(77.608260, 65.608260)">
                                    <path d="M421.472222,0.472221514 L612.905211,487.501633 C613.363227,488.666882 613.598347,489.90778 613.598347,491.159812 C613.598347,496.682659 609.121194,501.159812 603.598347,501.159812 L603.598347,501.159812 L431.472222,501.159812 C425.949374,501.159812 421.472222,496.682659 421.472222,491.159812 L421.472222,0.472221514 Z M0.472221514,501.472222 L387.726444,345.025378 C388.916731,344.544515 390.188472,344.297334 391.472222,344.297334 C396.995069,344.297334 401.472222,348.774486 401.472222,354.297334 L401.472222,354.297334 L401.472222,491.472222 C401.472222,496.995069 396.995069,501.472222 391.472222,501.472222 L0.472221514,501.472222 Z M401.472222,842.200012 L280.83167,534.853844 C280.374772,533.689843 280.140242,532.450474 280.140242,531.200012 C280.140242,525.677165 284.617394,521.200012 290.140242,521.200012 L391.472222,521.200012 C396.995069,521.200012 401.472222,525.677165 401.472222,531.200012 L401.472222,531.200012 L401.472222,842.200012 Z M678.472222,521.200012 L435.129866,616.832611 C433.96477,617.290489 432.72406,617.525537 431.472222,617.525537 C425.949374,617.525537 421.472222,613.048384 421.472222,607.525537 L421.472222,531.200012 C421.472222,525.677165 425.949374,521.200012 431.472222,521.200012 L678.472222,521.200012 Z"></path>
                                </g>
                            </g>
                        </g>
                    </g>
                </g>
            </g>
        </g>
    </g>
</svg>